<?xml version="1.0" encoding="utf-8"?>
<!-- Generator: Adobe Illustrator 23.0.2, SVG Export Plug-In . SVG Version: 6.00 Build 0)  -->
<svg version="1.1" id="Layer_1" xmlns="http://www.w3.org/2000/svg" xmlns:xlink="http://www.w3.org/1999/xlink" x="0px" y="0px"
	 viewBox="0 0 400 400" style="enable-background:new 0 0 400 400;" xml:space="preserve">
<style type="text/css">
	.st0{fill:#FFFFFF;stroke:#000000;stroke-width:17;stroke-miterlimit:10;}
	.st1{fill:#FFFFFF;stroke:#000000;stroke-width:14;stroke-miterlimit:10;}
</style>
<circle class="st0" cx="200" cy="200" r="175.65"/>
<circle class="st1" cx="200" cy="200" r="135.17"/>
<g>
	<path d="M256.46,244.66c-0.82,0.82-1.79,1.22-2.91,1.22h-24.89c-1.63,0-2.8-0.61-3.51-1.84l-28.99-44.52
		c-0.51,0-1.04,0.03-1.6,0.08c-0.56,0.05-1.09,0.08-1.6,0.08v30.91c0,1.63,0.02,2.96,0.08,3.98c0.05,1.02,0.33,1.79,0.84,2.29
		c0.51,0.51,1.45,0.79,2.83,0.84c1.38,0.05,3.19,0.08,5.43,0.08c1.12,0,2.09,0.38,2.91,1.15c0.82,0.77,1.22,1.71,1.22,2.83
		c0,1.12-0.41,2.09-1.22,2.91c-0.82,0.82-1.79,1.22-2.91,1.22H156.7c-1.12,0-2.09-0.41-2.91-1.22c-0.82-0.81-1.22-1.78-1.22-2.91
		c0-1.12,0.41-2.07,1.22-2.83c0.82-0.76,1.78-1.15,2.91-1.15c2.24,0,4.05-0.02,5.43-0.08c1.38-0.05,2.32-0.33,2.83-0.84
		c0.51-0.51,0.77-1.27,0.77-2.29c0-1.02,0-2.34,0-3.98v-74.36c0-1.63,0-2.91,0-3.82c0-1.02-0.26-1.78-0.77-2.29
		c-0.51-0.51-1.45-0.79-2.83-0.84c-1.38-0.05-3.19-0.08-5.43-0.08c-1.12,0-2.09-0.41-2.91-1.22c-0.82-0.82-1.22-1.78-1.22-2.91
		c0-1.12,0.41-2.07,1.22-2.83c0.82-0.76,1.78-1.15,2.91-1.15h48.43c4.68,0,9.49,0.51,14.43,1.53c4.94,1.02,9.42,2.68,13.44,4.97
		c4.02,2.3,7.3,5.31,9.85,9.03c2.54,3.72,3.82,8.29,3.82,13.69c0,4.18-0.61,7.8-1.83,10.86c-1.22,3.06-2.95,5.66-5.19,7.8
		c-2.24,2.14-4.91,3.9-8.01,5.28c-3.1,1.38-6.53,2.42-10.3,3.14c3.46,5.3,6.84,10.38,10.15,15.22c3.3,4.85,6.41,9.13,9.31,12.85
		c2.9,3.72,5.44,6.71,7.64,8.95c2.19,2.25,3.9,3.37,5.12,3.37c1.12,0,2.09,0.38,2.91,1.15c0.82,0.77,1.22,1.71,1.22,2.83
		C257.68,242.87,257.27,243.84,256.46,244.66z M173.22,149.19c0.31,1.12,0.48,2.29,0.54,3.52c0.05,1.22,0.08,2.4,0.08,3.52v74.36
		c0,1.22-0.03,2.45-0.08,3.67c-0.05,1.22-0.23,2.4-0.54,3.52h12.24c-0.31-1.12-0.49-2.29-0.54-3.52c-0.05-1.22-0.08-2.45-0.08-3.67
		v-76.96c0-1.43,0.25-2.91,0.76-4.44H173.22z M216.67,158.67c-1.02-2.85-2.37-4.97-4.05-6.35c-1.68-1.38-3.65-2.24-5.89-2.6
		c-2.25-0.36-4.59-0.54-7.04-0.54c-2.25,0-3.93,0.51-5.05,1.53c-1.12,1.02-1.68,1.99-1.68,2.91v37.79c5.51-0.1,9.92-0.41,13.23-0.92
		c3.31-0.51,5.86-1.5,7.65-2.98c1.78-1.48,2.96-3.57,3.52-6.27c0.56-2.7,0.84-6.35,0.84-10.94
		C218.21,165.4,217.69,161.53,216.67,158.67z M225.86,218.95c-4.8-7.04-9.23-13.77-13.31-20.2c-1.12,0.21-2.24,0.31-3.37,0.31
		c-1.12,0-2.29,0.05-3.52,0.15l25.25,38.56h9.94C235.65,232.26,230.65,225.99,225.86,218.95z M234.21,158.82
		c-2.89-3.06-6.8-5.41-11.73-7.04c1.22,2.25,2.17,4.87,2.83,7.88c0.66,3.01,1,6.55,1,10.63c0,3.98-0.26,7.45-0.77,10.4
		c-0.51,2.96-1.33,5.56-2.45,7.8c5.24-1.43,9.13-3.54,11.66-6.35c2.53-2.8,3.8-6.76,3.8-11.86
		C238.55,165.71,237.11,161.88,234.21,158.82z"/>
</g>
</svg>
